<?xml version="1.0" encoding="utf-8"?>
<!-- Generator: Adobe Illustrator 19.2.1, SVG Export Plug-In . SVG Version: 6.00 Build 0)  -->
<svg version="1.1" id="Layer_1" xmlns="http://www.w3.org/2000/svg" xmlns:xlink="http://www.w3.org/1999/xlink" x="0px" y="0px"
	 viewBox="0 0 136.9 137.1" style="enable-background:new 0 0 136.9 137.1;" xml:space="preserve">
<style type="text/css">
	.st0{clip-path:url(#SVGID_2_);fill:#D8B243;}
	.st1{clip-path:url(#SVGID_2_);fill:#A01E21;}
	.st2{opacity:0.4;clip-path:url(#SVGID_2_);fill:#D8B243;}
	.st3{clip-path:url(#SVGID_2_);fill:#7F1518;}
	.st4{opacity:0.6;clip-path:url(#SVGID_2_);fill:#380D11;}
	.st5{clip-path:url(#SVGID_2_);fill:#FFFFFF;}
	.st6{clip-path:url(#SVGID_2_);fill:#191819;}
</style>
<g>
	<defs>
		<rect id="SVGID_1_" x="-0.2" width="137.1" height="137.1"/>
	</defs>
	<clipPath id="SVGID_2_">
		<use xlink:href="#SVGID_1_"  style="overflow:visible;"/>
	</clipPath>
	<path class="st0" d="M68.4,116.3c-6.3,0-12.4-1.2-18.3-3.6c-5.8-2.4-11-5.9-15.5-10.3c-4.5-4.5-7.9-9.6-10.3-15.5
		c-2.4-5.8-3.6-11.9-3.6-18.3c0-6.3,1.2-12.4,3.6-18.3c2.4-5.8,5.9-11,10.3-15.5c4.5-4.5,9.6-7.9,15.5-10.3
		c5.8-2.4,11.9-3.6,18.3-3.6c6.3,0,12.4,1.2,18.3,3.6c5.8,2.4,11,5.9,15.5,10.3c4.5,4.5,7.9,9.6,10.3,15.5
		c2.4,5.8,3.6,11.9,3.6,18.3c0,6.3-1.2,12.4-3.6,18.3c-2.4,5.8-5.9,11-10.3,15.5c-4.5,4.5-9.6,7.9-15.5,10.3
		C80.9,115,74.8,116.2,68.4,116.3z M68.4,0.1c-9.1,0-17.8,1.7-26.2,5.2C33.9,8.8,26.5,13.7,20,20.1C13.6,26.6,8.7,34,5.2,42.3
		C1.7,50.7,0,59.5,0,68.5c0,9.1,1.7,17.8,5.2,26.2c3.5,8.4,8.4,15.8,14.8,22.2c6.4,6.4,13.8,11.4,22.2,14.8
		c8.4,3.5,17.1,5.2,26.2,5.2c9.1,0,17.8-1.7,26.2-5.2c8.4-3.5,15.8-8.4,22.2-14.8c6.4-6.4,11.4-13.8,14.8-22.2
		c3.5-8.4,5.2-17.1,5.2-26.2c0-9.1-1.7-17.8-5.2-26.2c-3.5-8.4-8.4-15.8-14.8-22.2C110.4,13.7,103,8.8,94.6,5.3
		C86.2,1.8,77.5,0.1,68.4,0.1z"/>
	<path class="st0" d="M68.2,4.5c-8.5,0-16.7,1.6-24.5,4.9C35.9,12.7,29,17.3,23,23.3c-6,6-10.6,12.9-13.9,20.8
		c-3.2,7.8-4.9,16-4.9,24.5S5.9,85.2,9.1,93c3.2,7.8,7.9,14.8,13.9,20.8c6,6,12.9,10.6,20.8,13.9c7.8,3.2,16,4.9,24.5,4.9
		c8.5,0,16.7-1.6,24.5-4.9c7.8-3.2,14.8-7.9,20.8-13.9c6-6,10.6-12.9,13.9-20.8c3.2-7.8,4.9-16,4.9-24.5c0-8.5-1.6-16.6-4.9-24.5
		s-7.9-14.8-13.9-20.8c-6-6-12.9-10.6-20.8-13.9C84.9,6.2,76.7,4.5,68.2,4.5z M68.2,137c-9.1,0-17.8-1.7-26.2-5.2
		c-8.4-3.5-15.8-8.4-22.2-14.8C13.4,110.5,8.5,103.1,5,94.7c-3.5-8.4-5.2-17.1-5.2-26.2c0-9.1,1.7-17.8,5.2-26.2
		c3.5-8.4,8.4-15.8,14.8-22.2c6.4-6.4,13.8-11.4,22.2-14.8c8.4-3.5,17.1-5.2,26.2-5.2c9.1,0,17.8,1.7,26.2,5.2
		c8.4,3.5,15.8,8.4,22.2,14.8c6.4,6.4,11.4,13.8,14.8,22.2c3.5,8.4,5.2,17.1,5.2,26.2c0,9.1-1.8,17.8-5.2,26.2
		c-3.5,8.4-8.4,15.8-14.8,22.2c-6.4,6.4-13.8,11.4-22.2,14.8C86,135.2,77.3,137,68.2,137z"/>
	<path class="st1" d="M68.4,22.6c-9.3,0-17.8,2.6-25.5,7.7C35.2,35.5,29.6,42.4,26,51c-3.6,8.6-4.4,17.4-2.6,26.5
		c1.8,9.1,6,16.9,12.6,23.5c6.6,6.6,14.4,10.8,23.5,12.6c9.1,1.8,17.9,0.9,26.5-2.6c8.6-3.6,15.4-9.2,20.6-16.9
		c5.2-7.7,7.7-16.2,7.7-25.5c0-6.1-1.2-11.9-3.5-17.6c-2.3-5.6-5.7-10.6-10-14.9c-4.3-4.3-9.3-7.6-14.9-10
		C80.4,23.8,74.5,22.6,68.4,22.6"/>
	<path class="st2" d="M112.8,76.6c0,0-0.9,3.5-6.6,8.9c0.9-3.1,1.5-6.2,1.7-9.4c0.1-1,0.1-2,0.1-3c2.2-2.2,4.1-4.6,5.5-7.4
		C113.8,69.4,113.5,73,112.8,76.6 M111.3,82.7c-3.5,10.5-9.9,18.6-19.4,24.3c4.1-3.7,7.5-7.9,10.3-12.6c1.3-2.3,2.5-4.7,3.4-7.3
		c2.5-2.1,4.7-4.6,6.5-7.3C111.9,80.8,111.6,81.7,111.3,82.7 M68.4,113.7c-5.7,0-11.2-1-16.5-3.1c0.6,0,1.2,0.1,2,0.1
		c2.2,0,4.4-0.3,6.5-0.7c2.4,0.7,4.9,1.2,7.4,1.6c2.1,0.3,4.1,0.4,6.2,0.4c3.3,0,6.5-0.3,9.7-0.9C78.8,112.8,73.7,113.7,68.4,113.7
		 M31.1,93.9c2.1,0.7,4.2,1,6.3,0.9c0.5,0,1.1,0,1.7,0c2.2,2.9,4.7,5.6,7.6,7.9c-6.3,0.5-8.8-0.9-9.1-1.1
		C35.1,99.3,32.9,96.7,31.1,93.9 M26,83.9c1.7,0.6,3.4,0.8,5.2,0.7c0.6,0,1.2,0,1.8,0c0.2,0.4,0.4,0.8,0.6,1.2
		c1.4,2.8,3.1,5.5,4.9,8.1c-5.3,0.2-7.8-1-8.3-1.3c-0.8-1.2-1.5-2.5-2.1-3.8C27.3,87.3,26.6,85.6,26,83.9 M33.3,40.3
		c0.4,0.3,0.8,0.6,1.3,0.8c-0.5,0.8-1,1.7-1.5,2.6c-2.4,4.3-3.9,8.8-4.7,13.6c-1.3-0.2-2.3-0.7-3.2-1.6c0.1-0.4,0.2-0.7,0.4-1.1
		C27.3,49.3,29.9,44.5,33.3,40.3 M42.7,31.5c-2.9,2.6-5.4,5.6-7.6,8.8c-0.5-0.2-0.9-0.4-1.3-0.7C36.4,36.5,39.4,33.8,42.7,31.5
		 M68.5,23.4c4.8,0,9.6,0.8,14.1,2.3c0.8,0.3,1.5,0.5,2.3,0.8l-0.1,0.2c-0.1,0-0.2-0.1-0.2-0.3c-0.4,1.6-1.1,3-2.2,4.2
		c-4.7-2.3-9.6-3.7-14.8-4.2l-1.5-0.1c0.7-0.9,1.3-1.9,1.7-3L68.5,23.4 M105.8,43.1L105.8,43.1c-0.1,0-0.8,2.4-4.4,6.4
		c-2.1-3.8-4.6-7.3-7.6-10.5c1.3-1.7,2.3-3.6,3-5.7C100.2,36.1,103.3,39.4,105.8,43.1 M110.7,52.7h-0.3c0,0-0.7,2.8-4.6,7.4
		c-0.9-2.8-2-5.6-3.3-8.3c-0.2-0.5-0.5-1-0.7-1.4c1.9-1.9,3.4-4,4.5-6.4C108.1,46.8,109.5,49.7,110.7,52.7 M106.1,60.9
		c2.1-2.2,3.7-4.7,4.9-7.5c1.2,3.4,2,7,2.4,10.6c-0.1,0.5-1.1,3.4-5.4,8C107.8,68.2,107.1,64.5,106.1,60.9 M97.6,80.7
		c-0.4-3.5-1.1-7-2.1-10.4c3.6-2.6,6.9-5.5,9.9-8.7c1,3.6,1.6,7.3,1.7,11.1C104.2,75.6,101,78.3,97.6,80.7 M97.3,92.4
		c0.6-3.6,0.7-7.2,0.4-10.8c3.4-2.3,6.5-4.9,9.5-7.7c0,0.7,0,1.5-0.1,2.2c-0.2,3.6-0.9,7.1-2.1,10.5C102.5,88.7,100,90.6,97.3,92.4
		 M96.2,97.1c0.4-1.2,0.7-2.4,0.9-3.6c2.5-1.6,4.9-3.4,7.2-5.4c-0.8,2-1.7,3.9-2.8,5.8c-2.6,4.5-5.9,8.6-9.8,12.1
		C93.7,103.3,95.2,100.3,96.2,97.1 M67.7,108c4.1,1.7,8.5,2.5,12.9,2.6c-4.3,0.5-8.5,0.5-12.8,0c-1.9-0.2-3.8-0.6-5.7-1
		C63.8,109.2,65.7,108.7,67.7,108 M49.1,93.1c2.1,2.9,4.5,5.5,7.2,7.8c-2.8,0.8-5.6,1.3-8.5,1.7c-2.9-2.3-5.5-4.9-7.7-7.8
		C43.1,94.5,46.1,94,49.1,93.1 M42.8,83c1.7,3.3,3.6,6.5,5.8,9.5c-3,0.8-6,1.3-9.1,1.5c-2-2.7-3.7-5.5-5.1-8.5l-0.4-0.9
		C36.9,84.3,39.8,83.7,42.8,83 M29.5,71.4c0.5,0,1,0.1,1.5,0.1h0.9c2,0,3.9-0.2,5.9-0.5c1.2,3.7,2.6,7.3,4.4,10.8l0.2,0.5
		c-2.9,0.8-5.8,1.3-8.8,1.5C31.7,79.8,30.3,75.7,29.5,71.4 M31.6,58.3c1.2,0,2.4-0.1,3.6-0.3c0.3,4.1,1.1,8.2,2.3,12.2
		c-2.1,0.4-4.2,0.5-6.4,0.5c-0.7,0-1.3,0-1.8-0.1c-0.5-3-0.7-6-0.6-9c0.1-1.1,0.2-2.3,0.3-3.4C29.9,58.3,30.7,58.3,31.6,58.3
		 M37.4,41.6c-1.8,5.1-2.6,10.3-2.2,15.6c-2,0.3-3.9,0.4-5.9,0.1c0.7-4.7,2.3-9.2,4.6-13.3c0.5-1,1.1-1.9,1.6-2.7
		C36.1,41.5,36.8,41.6,37.4,41.6 M37.7,40.8c-0.6,0-1.2-0.1-1.8-0.2c1.6-2.4,3.5-4.7,5.6-6.8C40,36,38.7,38.3,37.7,40.8 M49,27.9
		c5.7-2.7,11.6-4.2,17.9-4.5c-0.4,1-1,2-1.7,2.9C59.7,26.1,54.3,26.6,49,27.9 M62.2,29.5l-0.6-0.2c-3-0.9-6-1.3-9.1-1.3
		c4-0.7,7.9-1,12-0.8C63.7,28,63,28.8,62.2,29.5 M80.1,33.4c-1.3,1.4-2.8,2.7-4.3,3.9c-3.7-3.4-8-5.9-12.7-7.6
		c0.9-0.8,1.7-1.7,2.4-2.6c0.7,0,1.3,0.1,2,0.2c5,0.5,9.9,1.8,14.4,4C81.4,31.9,80.8,32.6,80.1,33.4 M91,58.5l-0.6-1.3
		C88.8,54,87.1,51,85.1,48c2.5-2,4.7-4.2,6.8-6.6c0.5-0.6,1-1.2,1.4-1.7c3,3.1,5.5,6.6,7.5,10.4C97.8,53.2,94.5,56,91,58.5
		 M91.3,59.2c3.5-2.5,6.8-5.2,9.8-8.3c0.2,0.4,0.4,0.8,0.6,1.2c1.4,2.8,2.5,5.7,3.4,8.6c-3,3.3-6.3,6.2-9.9,8.8
		C94.2,66,92.9,62.6,91.3,59.2 M85.4,76.2c-1.4-3.6-2.9-7-4.4-10.2c3.8-2.2,7-4.3,9.7-6.3c1.5,3.3,2.8,6.8,3.9,10.3
		C92,72,88.9,74,85.4,76.2 M88.8,86.4c-0.9-3.2-2-6.4-3.2-9.5c3.1-1.9,6.2-3.9,9.2-6.1c1,3.4,1.7,6.9,2,10.4
		C94.5,82.9,91.9,84.6,88.8,86.4 M90.9,100.1c0-0.9,0-1.8-0.1-2.7c2-1.1,3.8-2.2,5.4-3.3c-0.2,0.9-0.4,1.8-0.7,2.7
		c-1.2,3.9-3.1,7.3-5.6,10.4C90.6,104.9,91,102.5,90.9,100.1 M75.9,105c0.7,0.6,1.5,1.1,2.2,1.6c2.2,1.5,4.6,2.5,7.2,3.1
		c-4.5,0.5-8.8,0.2-13.2-1c-1.1-0.3-2.2-0.7-3.3-1.1C71,106.9,73.4,106,75.9,105 M68.3,97.5c2.1,2.5,4.4,4.8,6.9,6.9
		c-2.7,1.2-5.2,2.1-7.5,2.8c-3.6-1.5-6.8-3.5-9.8-5.9C61.5,100.3,65,99,68.3,97.5 M61.9,88.7c1.8,2.8,3.7,5.5,5.9,8.1
		c-3.5,1.4-7,2.7-10.6,3.7c-2.7-2.3-5.1-4.9-7.2-7.7C54,91.8,58,90.4,61.9,88.7 M56,78.4c1.6,3.1,3.5,6.4,5.5,9.7
		c-4,1.6-8,3-12.1,4.1c-2.2-3-4.2-6.1-5.9-9.5C47.8,81.5,51.9,80.1,56,78.4 M46.2,54.9c1.2,4,2.6,7.8,4.2,11.6
		c-3.9,1.5-8,2.7-12.2,3.5c-1.2-4-2-8-2.3-12.2C39.5,57.3,42.9,56.3,46.2,54.9 M44.9,30.9c-0.9,2.6-1.4,5.2-1.3,7.9
		c0,0.4,0,0.8,0,1.1c-1.7,0.5-3.4,0.8-5.1,0.9C40,37.1,42.1,33.8,44.9,30.9 M57.5,33.2l-1.1-0.8c-2.3-1.6-4.7-2.8-7.4-3.5
		c4.2-0.5,8.3-0.1,12.4,1.1h0.2C60.3,31.2,58.9,32.2,57.5,33.2 M67.5,43.4c-2.7-3.6-5.8-6.8-9.3-9.6c1.5-1,3-2.1,4.3-3.4
		c4.8,1.6,9,4.1,12.8,7.5C72.8,39.9,70.2,41.7,67.5,43.4 M74.8,54.3c-2.1-3.6-4.4-7-6.9-10.4c2.7-1.7,5.3-3.6,7.8-5.6
		c3.1,2.8,5.8,6,8.2,9.4C81,50.2,78,52.4,74.8,54.3 M79.7,63.4c-1.3-2.6-2.8-5.5-4.5-8.4c3.2-2,6.3-4.2,9.2-6.5
		c1.9,2.9,3.7,5.9,5.2,9.1l0.7,1.4c-2.7,2-6,4.1-9.7,6.3L79.7,63.4 M68.7,71.7l-1.8-3.6l-3.2-6.6c3.3-1.7,7.1-3.7,10.8-6.1
		c1.7,2.9,3.2,5.7,4.5,8.4l0.9,1.9c-3.3,1.9-7,3.9-11.1,6 M74,82.3c-1.5-3-3.2-6.3-5-9.9c4.1-2.1,7.8-4.1,11.1-6
		c1.5,3.1,3,6.6,4.4,10.2C81.4,78.4,77.9,80.3,74,82.3 M78.9,91.8c-1.3-2.5-2.8-5.4-4.5-8.7c3.2-1.6,6.8-3.6,10.4-5.7
		c1.2,3.1,2.3,6.3,3.1,9.5C85.2,88.4,82.2,90.1,78.9,91.8 M83.5,100.4c-1.1-2.1-2.6-4.8-4.2-8c3.3-1.7,6.3-3.3,9-4.9
		c0.8,3.1,1.4,6.2,1.7,9.4C88,98.1,85.8,99.3,83.5,100.4 M83.2,101.5c2.5,4.6,3.8,6.7,4.4,7.6c-1.5,0-5.4-0.6-10.8-4.6
		C78.8,103.7,80.9,102.6,83.2,101.5 M78.6,92.8c1.7,3.2,3.1,5.9,4.2,8c-2.4,1.2-4.7,2.3-6.8,3.2c-2.5-2-4.9-4.3-6.9-6.8
		C72,96,75.2,94.5,78.6,92.8 M73.8,83.4c1.7,3.3,3.2,6.2,4.5,8.7c-3.5,1.7-6.7,3.1-9.7,4.4c-2.1-2.6-4.1-5.3-5.9-8.1
		C66,87.1,69.7,85.4,73.8,83.4 M68.5,72.8c1.8,3.7,3.5,6.9,5,9.9c-3.3,1.7-7.2,3.5-11.2,5.1c-1.8-2.8-3.6-6-5.5-9.7
		C60.3,76.7,64.2,74.9,68.5,72.8 M63,62l3.3,6.6l1.8,3.6c-4.3,2.2-8.2,3.9-11.7,5.4l-1-1.9c-1.5-3-2.8-5.8-3.9-8.5
		C55.6,65.5,59.6,63.7,63,62 M57,50.2l0.1-0.1c1.6,3.2,3.5,6.9,5.6,11.1c-3.4,1.7-7.4,3.6-11.5,5.2c-1.6-3.8-3-7.7-4.2-11.6
		C49.9,53.6,53.3,52.1,57,50.2 M50.8,37.9c1.5,2.8,3.4,6.5,5.9,11.5l-0.1,0.1c-3.7,1.9-7,3.3-9.9,4.5c-1.3-4.4-2.1-8.8-2.3-13.4
		C46.6,39.8,48.8,38.9,50.8,37.9 M51.2,36.8c-2.4-4.5-3.6-6.5-4.1-7.4c3.3,0.5,6.3,1.7,8.9,3.8l0.7,0.5C55,34.9,53.1,35.9,51.2,36.8
		 M57.5,49c-2.5-4.9-4.4-8.6-5.9-11.5c2-1,4-2.1,5.9-3.4c3.5,2.8,6.7,6,9.4,9.6C64.2,45.4,61.1,47.2,57.5,49 M57.9,49.7
		c2.9-1.5,6.2-3.3,9.5-5.3c2.5,3.3,4.8,6.8,6.9,10.4c-3.1,1.9-6.7,3.9-10.8,6C61.3,56.6,59.5,52.9,57.9,49.7 M44.4,39
		c0-5.4,1.3-8.2,2-9.2c0.5,0.8,1.6,2.7,4.1,7.5c-2,1-4,1.8-6.1,2.5C44.4,39.5,44.4,39.2,44.4,39 M90.1,100c0,5.2-1.3,7.8-1.9,8.8
		c-0.5-0.8-1.8-2.9-4.4-7.7c2.2-1.1,4.3-2.2,6.2-3.3C90.1,98.6,90.1,99.3,90.1,100 M38.1,41.9l0.1-0.3c1.9,0,3.7-0.3,5.5-0.9
		c0.3,4.6,1.1,9,2.4,13.4c-3.3,1.3-6.7,2.3-10.1,2.9C35.6,51.9,36.3,46.8,38.1,41.9 M42.8,81.4c-1.7-3.4-3.1-6.9-4.3-10.5
		c4.2-0.8,8.2-2,12.2-3.5c1.3,3.1,2.6,6,3.9,8.6l0.9,1.9c-4.1,1.7-8.2,3.1-12.5,4.3L42.8,81.4 M96.5,93c-1.7,1.1-3.6,2.3-5.7,3.5
		c-0.3-3.2-0.9-6.3-1.7-9.4c3-1.8,5.6-3.5,8-5.1C97.3,85.8,97.1,89.4,96.5,93 M85.6,33.4c2.6,1.6,4.9,3.5,7,5.7
		c-2.4,3.1-5.1,5.8-8.1,8.3c-2.4-3.4-5.1-6.6-8.1-9.4c1.6-1.3,3-2.6,4.4-4.1c0.7-0.8,1.3-1.5,1.9-2.2C83.7,32.2,84.7,32.8,85.6,33.4
		 M86,32.7c-1-0.6-2-1.2-3-1.7c1.1-1.3,1.8-2.7,2.2-4.4c3.8,1.5,7.4,3.5,10.7,6c-0.6,2.1-1.5,4-2.8,5.7C91,36.2,88.6,34.3,86,32.7
		 M25,56.4c1,0.8,2.1,1.4,3.3,1.6c-0.2,1.2-0.3,2.3-0.3,3.5c-0.1,3,0,6,0.5,9c-1.9-0.2-3.6-0.8-5.2-1.9C23.4,64.5,23.9,60.4,25,56.4
		 M25.7,83c-1.5-4.4-2.3-8.9-2.3-13.5c1.7,1,3.4,1.6,5.4,1.8c0.8,4.3,2.2,8.5,4,12.5C27.7,84.1,25.7,83,25.7,83L25.7,83z
		 M50.2,104.3c-0.5-0.3-1-0.7-1.4-1c2.8-0.4,5.5-1,8.3-1.8c2.9,2.5,6.1,4.5,9.6,6c-2,0.6-4.1,1.2-6.2,1.6
		C56.8,108,53.4,106.4,50.2,104.3 M48,108.8c-3.1-1.6-6-3.5-8.7-5.7c1.6,0.4,3.2,0.6,4.9,0.5c1.2,0,2.3-0.1,3.5-0.2
		c0.7,0.5,1.4,1,2.2,1.5c2.8,1.9,5.8,3.4,9,4.5C51,110.7,48.1,108.8,48,108.8L48,108.8z M109.5,47.9c-2.7-5.4-6.4-10.1-11-14.1
		c-4.6-4-9.8-6.9-15.5-8.9c-5.8-1.9-11.7-2.7-17.7-2.3c-6.1,0.4-11.8,2-17.3,4.7c-5.5,2.7-10.2,6.3-14.2,10.9s-7,9.7-9,15.5
		c-2,5.8-2.7,11.7-2.4,17.7c0.4,6.1,1.9,11.8,4.6,17.3c2.7,5.5,6.3,10.2,10.8,14.2c4.6,4,9.7,7,15.4,9c5.7,2,11.7,2.8,17.7,2.4
		c6.1-0.4,11.8-1.9,17.3-4.5h0.1l0.5-0.2c11.4-5.7,19.1-14.6,23.1-26.6C116.1,70.9,115.2,59.2,109.5,47.9"/>
	<path class="st3" d="M66.6,70.8c3-3.5,3.9-7.4,2.6-11.8c-0.7-2.4-1.8-4.7-3.2-6.8l-2.9-4.6c-0.6-0.9-1.1-1.9-1.6-2.9
		c-0.4-0.8-0.6-1.6-0.9-2.4c-0.5-1.7-0.4-3.3,0.2-4.9c0.7-1.5,1.8-2.4,3.4-2.7c1.4-0.4,2.7-0.3,4,0.5c1.3,0.8,2.1,2,2.4,3.5
		c0.4,1.6,0.2,3.2-0.5,4.7c-0.6,1.5-1.6,2.4-3.1,2.9c-0.9,0.2-1.3,0.6-1.1,1c0.2,0.4,0.6,0.5,1.5,0.2c2.4-0.6,4.3-1.9,5.7-3.8
		c1.4-1.7,1.8-3.6,1.3-5.8c-0.5-2.1-1.7-3.5-3.7-4.2c-2.3-0.9-4.7-0.9-7.1-0.2c-3.6,0.8-6.5,2.7-8.7,5.6c-2.1,2.5-2.7,5.3-2,8.4
		c0.3,1.2,0.8,2.3,1.3,3.4l3.8,6.5c1.5,2.3,2.7,4.7,3.6,7.3c0.8,2.7,0.5,5.3-1,7.7c-1.6,2.4-3.7,3.9-6.5,4.5
		c-2.9,0.9-5.6,0.5-8.1-1.3c-2.6-2-4.2-4.6-4.9-7.8c-0.8-2.8-0.6-5.5,0.7-8.2c1.1-2.4,2.9-4,5.5-4.7c1.6-0.5,3.1-0.2,4.5,0.8
		c1.4,1,2.3,2.4,2.7,4.1c0.3,1.2,0.3,2.3,0.1,3.5c-0.1,1.1-0.4,2-1.1,2.8c-0.5,0.3-0.7,0.7-0.7,1.2l0.6,0.5c0.5-0.2,0.8-0.6,1.1-1
		l1.1-1.6c0.7-1,1.2-2.1,1.4-3.3c0.2-1.1,0.2-2.2-0.1-3.4c-0.4-2-1.6-3.5-3.5-4.5c-1.9-0.9-3.9-1.1-6-0.5c-4,1-7,3.2-9.1,6.7
		c-2.2,3.4-2.8,7-1.7,10.9c0.7,3.3,2.5,5.7,5.6,7.2c2.8,1.3,6.4,1.3,10.7,0.2C59.1,76.8,63.8,74.3,66.6,70.8z"/>
	<path class="st4" d="M66.6,70.8c3-3.5,3.9-7.4,2.6-11.8c-0.7-2.4-1.8-4.7-3.2-6.8l-2.9-4.6c-0.6-0.9-1.1-1.9-1.6-2.9
		c-0.4-0.8-0.6-1.6-0.9-2.4c-0.5-1.7-0.4-3.3,0.2-4.9c0.7-1.5,1.8-2.4,3.4-2.7c1.4-0.4,2.7-0.3,4,0.5c1.3,0.8,2.1,2,2.4,3.5
		c0.4,1.6,0.2,3.2-0.5,4.7c-0.6,1.5-1.6,2.4-3.1,2.9c-0.9,0.2-1.3,0.6-1.1,1c0.2,0.4,0.6,0.5,1.5,0.2c2.4-0.6,4.3-1.9,5.7-3.8
		c1.4-1.7,1.8-3.6,1.3-5.8c-0.5-2.1-1.7-3.5-3.7-4.2c-2.3-0.9-4.7-0.9-7.1-0.2c-3.6,0.8-6.5,2.7-8.7,5.6c-2.1,2.5-2.7,5.3-2,8.4
		c0.3,1.2,0.8,2.3,1.3,3.4l3.8,6.5c1.5,2.3,2.7,4.7,3.6,7.3c0.8,2.7,0.5,5.3-1,7.7c-1.6,2.4-3.7,3.9-6.5,4.5
		c-2.9,0.9-5.6,0.5-8.1-1.3c-2.6-2-4.2-4.6-4.9-7.8c-0.8-2.8-0.6-5.5,0.7-8.2c1.1-2.4,2.9-4,5.5-4.7c1.6-0.5,3.1-0.2,4.5,0.8
		c1.4,1,2.3,2.4,2.7,4.1c0.3,1.2,0.3,2.3,0.1,3.5c-0.1,1.1-0.4,2-1.1,2.8c-0.5,0.3-0.7,0.7-0.7,1.2l0.6,0.5c0.5-0.2,0.8-0.6,1.1-1
		l1.1-1.6c0.7-1,1.2-2.1,1.4-3.3c0.2-1.1,0.2-2.2-0.1-3.4c-0.4-2-1.6-3.5-3.5-4.5c-1.9-0.9-3.9-1.1-6-0.5c-4,1-7,3.2-9.1,6.7
		c-2.2,3.4-2.8,7-1.7,10.9c0.7,3.3,2.5,5.7,5.6,7.2c2.8,1.3,6.4,1.3,10.7,0.2C59.1,76.8,63.8,74.3,66.6,70.8z"/>
	<path class="st4" d="M102.6,52.1c-0.4-1.6-1.6-3.5-5-3.5c-1.2,0-2.4,0.2-3.6,0.5c-1.6,0.4-3.1,0.9-4.6,1.4l-3.8,1.9
		c-1.6,0.9-2.9,1.8-4,2.6c-1.3,1-2.5,2.1-3.7,3.2l-3.8,3.9c-1.1,1.2-2.2,2.5-3.1,3.8c-1.9,3.1-3.6,6.2-5.2,9.5
		c-0.2,0.7-0.4,1.5-0.6,2.2c-0.2,1-0.4,2-0.5,3c-0.1,1-0.2,2-0.1,3.1c0.1,1,0.2,1.9,0.4,2.8c0.5,2.4,1.9,4.3,3.9,5.6
		c1.3,0.8,2.6,1.1,4.1,1.1c0.8,0,1.7-0.1,2.5-0.3c1.8-0.5,3.4-1.3,4.9-2.3c1.6-1,2.9-2.3,4.2-3.7l0.9-1.2l-0.7,1.8l-2.1,5.6
		c-1.1,2.6-2.4,5-4.1,7.2c-0.1,0.2-0.2,0.4-0.3,0.6c-1,1.1-2.2,1.9-3.6,2.3c-0.5,0.1-1,0.2-1.4,0.2c-0.5,0-1-0.1-1.4-0.3
		c-0.7-0.3-1.1-0.8-1.3-1.5c-0.1-0.5-0.1-0.9,0.1-1.3c0.2-0.4,0.5-0.6,0.9-0.7l0.4-0.1l0.5-0.1l0.6-0.1l-0.1-0.6v-0.1
		c-0.1-0.4-0.4-0.8-0.7-1.1l-0.8-0.6L71.4,97h-0.2c-0.3,0-0.6,0-0.9,0c-0.3,0-0.6,0-1,0.1c-1.3,0.4-2.3,1.1-3,2.3
		c-0.8,1.1-1,2.3-0.7,3.5c0.4,1.7,1.4,2.8,3.1,3.4c0.8,0.3,1.6,0.4,2.4,0.4c1.1,0,2.3-0.2,3.4-0.5c1.6-0.4,3.2-1.1,4.7-1.9
		c1.8-0.9,3.6-2,5.2-3.2c2.2-1.7,4-3.6,5.4-6c1.2-1.9,2.2-3.7,2.9-5.3c0.4-0.6,0.7-1.3,1-2c1.1-2.6,2-5.2,2.8-7.8
		c1.2-4.1,2.2-8.3,3-12.5l0.2-1.2l-1.1,0.5c-0.8,0.4-1.5,0.8-2.2,1.1c-0.5,0.3-1,0.5-1.5,0.7c-0.3,0.1-0.6,0.2-0.9,0.4l-0.8,0.1
		h-0.2l-1.5,0.4l-8.9,3.3l-0.4,0.2v0.2c-0.3,0.1-0.5,0.4-0.5,0.7c-0.1,0.3,0,0.6,0.2,0.8c0.3,0.4,1.1,0.8,4,0.8c0.7,0,1.4,0,2,0h0.3
		c-0.2,0.8-0.5,1.5-0.9,2.3L86.4,80l-1.2,1.8c-0.8,0.8-1.6,1.5-2.5,2.1c-0.8,0.6-1.7,1-2.7,1.3c-0.5,0.1-0.9,0.2-1.4,0.2
		c-0.8,0-1.6-0.2-2.3-0.6c-1.1-0.5-1.8-1.4-2.1-2.5l-0.3-2.9v-2.8l0.3-1.9l0.7-2.4l0.6-1.6l0.1-0.2l0.9-2.6l1.7-3.2l3.4-4.9
		c1.2-1.7,2.5-3.2,4.1-4.5c1-0.8,2-1.5,3.1-2c0.8-0.4,1.7-0.8,2.6-1c0.7-0.2,1.3-0.3,2-0.3c1.3-0.2,2.1,0.4,2.4,1.6
		c0.1,0.6,0.1,1.2-0.1,1.8c-0.5,1.3-1,2.6-1.7,3.9c-0.2,0.3-0.2,0.7,0,1c0.3,0.4,0.8,0.6,1.3,0.5c1.7,0,5.1-1.3,6-2.9
		C102.5,56.2,102.9,54.2,102.6,52.1z"/>
	<path class="st5" d="M101.2,51.4c-0.7-2.9-3.4-3.7-7.8-2.6c-1.5,0.4-3.1,0.8-4.5,1.4l-3.8,1.9c-1.6,0.9-2.9,1.8-3.9,2.6
		c-1.3,1-2.5,2-3.6,3.2l-3.7,3.9c-1.1,1.2-2.1,2.4-3.1,3.8c-0.9,1.2-4.8,8.2-5.2,9.4c-0.2,0.7-0.4,1.4-0.6,2.1
		c-0.2,0.9-0.4,1.9-0.5,2.9c-0.1,1-0.2,2-0.1,3c0.1,0.9,0.2,1.8,0.4,2.7c0.5,2.2,1.7,4,3.6,5.2c1.9,1.1,4,1.4,6.1,0.7
		c1.7-0.5,3.3-1.2,4.8-2.2c1.5-1,2.9-2.2,4-3.6l1.2-1.6l1.9-2.9L84.7,87l-2.1,5.6c-1.1,2.6-2.5,5.1-4.1,7.3
		c-0.2,0.3-0.2,0.4-0.1,0.4c-1.1,1.3-2.5,2.2-4.1,2.8c-1.1,0.4-2.2,0.3-3.2-0.1c-0.9-0.3-1.4-1-1.7-1.9c-0.2-0.6-0.1-1.2,0.2-1.7
		c0.3-0.5,0.7-0.9,1.3-1l0.4-0.1l0.5-0.1V98c-0.1-0.3-0.3-0.6-0.5-0.8l-0.9-0.6c-0.5-0.1-1.1-0.1-1.6,0c-1.1,0.3-2,1-2.6,2
		c-0.7,1-0.9,2-0.7,3.2c0.3,1.5,1.3,2.5,2.7,2.9c1.8,0.5,3.7,0.5,5.5-0.1c1.6-0.4,3.1-1.1,4.5-1.8c1.8-0.9,3.5-2,5.1-3.2
		c2.1-1.6,3.8-3.5,5.2-5.8c1.2-1.9,2.1-3.6,2.9-5.2c0.4-0.6,0.7-1.2,1-1.9c1.1-2.6,2-5.2,2.8-7.8c1.2-4.1,2.2-8.3,3-12.5l-2.2,1.1
		c-0.5,0.3-1.1,0.5-1.7,0.7c-0.3,0.1-0.6,0.2-0.8,0.4l-1,0.3l-1.5,0.4l-8.9,3.3c-0.2,0.7-0.3-0.1-0.5,0.5c-0.3,1.4,6.8,0.7,6.7,0.9
		c-0.3,1.1-0.7,2.1-1.1,3.1l-1.1,2.2l-1.3,1.8c-0.8,0.8-1.7,1.6-2.6,2.2c-0.9,0.6-1.9,1.1-2.9,1.4c-1.4,0.4-2.8,0.3-4.2-0.5
		c-1.2-0.6-2-1.6-2.4-2.9l-0.3-3v-2.8l0.3-1.9l0.7-2.4l0.7-1.6l0.1-0.1l0.9-2.6l1.8-3.3l3.4-5c1.2-1.7,2.6-3.3,4.2-4.6
		c1-0.8,2.1-1.5,3.3-2.1c0.8-0.4,1.7-0.8,2.6-1c2.9-0.8,4.6-0.2,5.1,1.8c0.1,0.7,0.1,1.4-0.1,2.1c-0.5,1.4-1.1,2.7-1.7,4
		c-0.8,1.7,5.1,0.2,6.3-1.9C101.2,55.1,101.6,53.3,101.2,51.4"/>
	<path class="st5" d="M68.4,58.1c1.3,4.4,0.4,8.4-2.6,11.8c-2.9,3.5-7.5,6-13.8,7.7c-4.3,1.1-7.9,1.1-10.7-0.2
		c-3.1-1.4-4.9-3.8-5.6-7.1c-1.1-3.9-0.5-7.5,1.7-10.9c2.1-3.5,5.1-5.8,9.1-6.7c2.1-0.6,4.1-0.5,6,0.5c1.9,0.9,3.1,2.4,3.6,4.5
		c0.3,1.1,0.3,2.2,0.1,3.4c-0.2,1.2-0.7,2.3-1.4,3.3l-1.1,1.6c-0.3,0.4-0.6,0.8-1.1,1L52,66.4c0-0.5,0.3-0.9,0.7-1.2
		c0.7-0.8,1.1-1.8,1.1-2.9c0.2-1.2,0.2-2.3-0.1-3.5c-0.4-1.7-1.3-3.1-2.7-4.1c-1.4-1-2.9-1.3-4.5-0.8c-2.6,0.7-4.4,2.2-5.5,4.7
		c-1.2,2.7-1.4,5.4-0.5,8.2c0.7,3.2,2.3,5.8,4.9,7.8c2.5,1.8,5.2,2.2,8.1,1.3c2.8-0.6,5-2.1,6.5-4.5c1.5-2.4,1.8-5,1-7.7
		c-0.9-2.6-2.1-5-3.6-7.3l-3.8-6.5c-0.5-1.1-1-2.2-1.3-3.4c-0.8-3.1-0.1-5.9,2-8.4c2.2-2.9,5.1-4.8,8.6-5.6c2.4-0.7,4.7-0.7,7.1,0.2
		c2,0.8,3.2,2.2,3.7,4.2c0.5,2.1,0.1,4.1-1.3,5.8c-1.5,2-3.4,3.3-5.8,3.8c-0.9,0.2-1.4,0.2-1.5-0.2c-0.1-0.4,0.3-0.8,1.1-1
		c1.5-0.5,2.5-1.4,3.1-2.9c0.8-1.5,0.9-3.1,0.5-4.7c-0.3-1.5-1.1-2.7-2.4-3.5c-1.3-0.8-2.6-0.9-4-0.5c-1.6,0.3-2.8,1.2-3.5,2.7
		c-0.7,1.6-0.7,3.2-0.2,4.9c0.2,0.8,0.5,1.6,0.9,2.4c0.5,1,1,2,1.6,2.9l2.9,4.7C66.6,53.4,67.7,55.6,68.4,58.1"/>
	<path class="st6" d="M20.1,45.6c-0.3,0.7-0.7,1.2-1.3,1.6c-0.7,0-1.3-0.2-1.9-0.5c0-0.1-0.1-0.2,0-0.3c0-0.1,0.1-0.1,0.2-0.2
		c1.1,0.2,2-0.1,2.6-1c0.2-0.3,0.2-0.6,0.1-1c-0.1-0.3-0.3-0.6-0.6-0.7c-0.9-0.3-1.7-0.1-2.4,0.6c-0.8,0.8-1.8,1-2.9,0.6
		c-1.2-0.6-1.6-1.9-0.8-3.5c0.2-0.4,0.5-0.8,0.8-1.1c0.1-0.1,0.2-0.2,0.3-0.3c0.6,0.1,1.1,0.3,1.6,0.5c0,0.1,0,0.2,0,0.3
		c0,0.1-0.1,0.1-0.2,0.2c-0.8-0.2-1.5,0.1-2,0.8c-0.2,0.3-0.2,0.6-0.1,0.9c0.1,0.3,0.3,0.5,0.6,0.7c0.6,0.2,1.2,0.1,1.7-0.4l0.7-0.5
		c0.8-0.7,1.8-0.9,2.8-0.5C20.6,42.5,20.9,44,20.1,45.6z"/>
	<path class="st6" d="M17.7,34.4c-0.8,1.2-0.1,2.6,1.5,3.8c1.2,0.8,3.4,1.7,4.5,0.1c0.9-1.3,0-2.6-1.7-3.7
		C20.4,33.4,18.5,33.2,17.7,34.4z M23,32.9c1.1,0.6,1.7,1.5,1.9,2.7c0.2,1.2-0.1,2.3-0.9,3.2c-0.6,1-1.5,1.6-2.6,1.8
		c-1.1,0.2-2.2,0-3.1-0.7c-1-0.6-1.6-1.5-1.8-2.7c-0.2-1.2,0-2.2,0.7-3.2c0.6-1,1.5-1.6,2.6-1.9C21,31.9,22.1,32.1,23,32.9z"/>
	<path class="st6" d="M22.7,29.9c-0.8-0.8-0.9-0.8-1.3-0.4l-0.2,0.2c-0.1,0-0.2,0-0.2-0.1c-0.1-0.1-0.1-0.1-0.1-0.2
		c0.4-0.4,0.8-0.8,1.2-1.3c0.4-0.5,0.8-0.9,1.2-1.3c0.2,0,0.3,0.1,0.3,0.3l-0.2,0.2c-0.3,0.5-0.3,0.6,0.5,1.3l2,1.9
		c1,1,2.2,1.9,3.5,0.6c1-1.1,0.4-2.4-0.8-3.5l-1.1-1c-0.5-0.5-1.1-0.9-1.7-1.3c-0.3-0.1-0.6,0-0.8,0.2l-0.3,0.2
		c-0.2,0-0.3-0.1-0.3-0.3c0.5-0.5,0.8-0.8,1.1-1.1c0.3-0.4,0.6-0.7,0.9-1c0.2,0,0.3,0.1,0.3,0.3l-0.1,0.2c-0.2,0.2-0.2,0.5-0.2,0.7
		c0.4,0.6,0.9,1.2,1.4,1.7l1,0.9c0.9,0.6,1.4,1.5,1.6,2.5c0,0.9-0.3,1.7-1,2.3c-0.5,0.7-1.2,1.1-2.1,1.3c-1.1,0-1.9-0.4-2.6-1.2
		L22.7,29.9z"/>
	<path class="st6" d="M30.4,21.3c-0.2-0.2-0.2-0.3-0.4-0.1l-0.6,0.5c-0.7,0.6-0.8,1.2-0.3,2c-0.1,0.2-0.2,0.2-0.4,0.2
		c-0.3-0.6-0.6-1.2-0.9-1.8c0-0.1,0-0.1,0.1-0.2c0,0,0.1-0.1,0.2-0.1c0.2,0.1,0.2,0.1,0.9-0.4l3.5-2.7c0.6-0.5,0.8-0.6,0.7-0.9
		c0,0,0.1-0.1,0.1-0.1c0.1,0,0.1,0,0.2,0c0.3,0.6,0.7,1.2,1.1,1.7c0,0.2-0.1,0.3-0.3,0.3c-0.5-0.7-1.1-0.8-1.8-0.3l-0.6,0.4
		c-0.2,0.2-0.2,0.2,0,0.5l3.2,4.1c0.7,0.9,0.8,0.9,1.3,0.6l0.4-0.2c0.2,0.1,0.2,0.2,0.3,0.3l-1.5,1.1c-0.5,0.4-0.9,0.7-1.6,1.3
		c-0.2,0-0.3-0.1-0.3-0.3l0.4-0.4c0.4-0.4,0.4-0.5-0.3-1.4L30.4,21.3z"/>
	<path class="st6" d="M39.9,18.7c-0.4,0.2-0.4,0.2-0.3,0.5l0.8,1.5c0.5,1,0.6,1,1.1,0.8l0.4-0.1c0.2,0.1,0.2,0.2,0.2,0.4l-1.6,0.8
		c-0.5,0.3-1,0.6-1.5,0.9c-0.2-0.1-0.2-0.2-0.2-0.4l0.3-0.2c0.4-0.4,0.4-0.5-0.1-1.4l-2.1-3.9c-0.5-1-0.6-1-1.2-0.8l-0.3,0.1
		c-0.2,0-0.3-0.2-0.3-0.4c0.5-0.3,1.1-0.5,1.6-0.8c0.5-0.3,1-0.5,1.4-0.8c0.2,0.1,0.2,0.2,0.2,0.4l-0.2,0.2
		c-0.4,0.3-0.4,0.4,0.2,1.4L39,18c0.2,0.3,0.2,0.3,0.6,0.1l2.2-1.2c0.4-0.2,0.4-0.2,0.3-0.5l-0.7-1.2c-0.5-1-0.6-1-1.1-0.8L40,14.4
		c-0.2-0.1-0.2-0.2-0.2-0.4l1.6-0.8c0.5-0.3,1-0.5,1.5-0.8c0.2,0.1,0.2,0.2,0.2,0.4l-0.2,0.1c-0.4,0.4-0.5,0.5,0.1,1.4l2.1,3.9
		c0.5,1,0.6,1,1.2,0.8l0.3-0.1c0.2,0.1,0.2,0.2,0.2,0.4c-0.5,0.3-1.1,0.5-1.5,0.8c-0.5,0.3-1,0.6-1.5,0.9c-0.2-0.1-0.2-0.2-0.2-0.4
		l0.2-0.2c0.4-0.4,0.4-0.5-0.1-1.4l-0.8-1.5c-0.2-0.3-0.2-0.3-0.6,0L39.9,18.7z"/>
	<path class="st6" d="M49.4,13.3c0.1,0.3,0.1,0.3,0.4,0.2l0.8-0.3c0.6-0.2,0.7-0.3,0.6-0.9v-0.3c0.1-0.2,0.2-0.2,0.4-0.1
		c0.1,0.4,0.2,0.8,0.4,1.2c0.1,0.4,0.3,0.8,0.4,1.2c-0.1,0.2-0.2,0.2-0.4,0.2l-0.2-0.3c-0.1-0.2-0.2-0.4-0.4-0.5
		c-0.2-0.1-0.4-0.1-0.6,0.1l-0.8,0.3c-0.3,0.1-0.3,0.1-0.2,0.5l0.5,1.3c0.1,0.4,0.3,0.7,0.5,1c0.5,0.2,0.9,0.2,1.3-0.1
		c1.2-0.2,1.7-0.8,1.6-2c0-0.1,0.1-0.1,0.2-0.1c0.1,0,0.2,0,0.2,0.1c0.1,0.6,0.2,1.3,0.1,2c-0.6,0.2-1.7,0.5-2.6,0.8l-1.5,0.5
		l-2,0.7c-0.1-0.1-0.2-0.2-0.1-0.4l0.5-0.3c0.5-0.2,0.5-0.3,0.2-1.4l-1.5-4.2c-0.4-1-0.4-1.1-1-1h-0.3c-0.2-0.1-0.2-0.2-0.1-0.4
		l1.6-0.5L50,9.8c0.7-0.2,1.3-0.5,1.5-0.5c0.1,0.2,0.4,1,0.7,1.7c0,0.1-0.1,0.1-0.2,0.2c-0.1,0-0.2,0-0.2,0
		c-0.2-0.3-0.4-0.5-0.7-0.7c-0.4-0.2-0.8-0.2-1.2,0L49,10.7c-0.4,0.1-0.4,0.1-0.2,0.6L49.4,13.3z"/>
	<path class="st6" d="M57.7,11.5c0.1,0.4,0.1,0.4,0.8,0.4c0.4,0,0.6-0.2,0.8-0.5c0.2-0.4,0.3-0.8,0.2-1.3c0-0.5-0.2-0.9-0.6-1.1
		c-0.4-0.3-0.8-0.4-1.2-0.3c-0.5,0.1-0.5,0.1-0.4,0.7L57.7,11.5z M55.8,10.3c-0.2-1.2-0.2-1.3-0.8-1.3h-0.3
		c-0.1-0.1-0.1-0.1-0.1-0.2c0-0.1,0-0.2,0.1-0.2c0.9-0.2,1.8-0.4,2.9-0.6c0.8-0.2,1.6-0.2,2.4,0c0.8,0.3,1.2,0.8,1.3,1.6
		c0.1,0.9-0.2,1.5-1,2c-0.1,0.1-0.1,0.1,0,0.3c0.6,1,1.4,1.9,2.3,2.6c0.3,0.2,0.5,0.2,0.8,0.2c0.1,0,0.1,0.1,0.1,0.1
		c0,0.1,0,0.1,0,0.2c-0.3,0.1-0.6,0.2-0.9,0.3c-1,0.2-1.8,0-2.5-0.8c-0.4-0.5-0.9-1.1-1.2-1.7c-0.2-0.3-0.4-0.4-0.7-0.3
		c-0.4,0.1-0.4,0.1-0.4,0.3l0.2,1.4c0.2,1.1,0.3,1.1,0.8,1.2h0.3c0.1,0.1,0.1,0.3,0.1,0.4l-1.7,0.3l-1.7,0.3
		c-0.1-0.1-0.2-0.3-0.1-0.4l0.2-0.1c0.5-0.2,0.6-0.3,0.4-1.3L55.8,10.3z"/>
	<path class="st6" d="M71.6,12.8c0,0.8,0,1.5,0,1.9C71.4,15,71.2,15,70.9,15c0,0-0.4-0.6-1-1.3l-2.8-3.4c-0.4-0.5-0.8-1-1.3-1.5
		c0,0.3,0,0.5,0,0.8V12c0,0.7,0,1.5,0.2,2.2c0.2,0.2,0.4,0.4,0.7,0.4l0.3,0c0.1,0.1,0.1,0.3,0,0.4h-1.6h-1.3c-0.1-0.1-0.1-0.3,0-0.4
		h0.2c0.3,0,0.5-0.1,0.7-0.4c0.1-0.7,0.2-1.5,0.1-2.2v-3c0-0.3-0.1-0.6-0.2-1c-0.2-0.3-0.4-0.4-0.7-0.4l-0.4,0
		c-0.1-0.1-0.1-0.3,0-0.4h1.6c0.4,0,0.8,0,1,0c0.5,1,1.2,1.9,2,2.7l1,1.2c0.5,0.6,0.9,1,1.2,1.3c0-0.2,0-0.4,0-0.5V10
		c0-0.7,0-1.5-0.2-2.2c-0.2-0.3-0.4-0.4-0.7-0.4h-0.3c-0.1-0.1-0.1-0.3,0-0.4h1.6h1.3c0.1,0.1,0.1,0.3,0,0.4h-0.2
		c-0.3,0-0.5,0.2-0.6,0.4c-0.1,0.7-0.2,1.5-0.1,2.2L71.6,12.8z"/>
	<path class="st6" d="M83.3,15.5c-0.1,0.5-0.1,0.7,0.1,0.8c0,0.1,0,0.2-0.1,0.3c-0.3,0-0.6,0-0.9,0c-0.7,0-1.4,0-2.1-0.2
		c-0.8-0.1-1.5-0.4-2.2-0.9c-1.5-1-2-2.3-1.6-4c0.3-1.6,1.2-2.6,2.8-3.1c1-0.2,1.9-0.2,2.9,0c0.8,0.2,1.5,0.5,2.2,0.8
		c0,0.4-0.2,1.2-0.2,1.9c-0.2,0.1-0.3,0.1-0.4-0.1c0-1.2-0.7-1.9-1.9-2.1c-1.9-0.4-3.1,1-3.5,2.8c-0.4,1.3-0.2,2.4,0.7,3.5
		c0.4,0.4,0.9,0.7,1.5,0.8c0.7,0.1,0.8,0,1-0.7l0.2-0.8c0.1-0.6,0.1-0.7-0.5-0.9l-0.5-0.1c0-0.1-0.1-0.1,0-0.2
		c0-0.1,0.1-0.1,0.1-0.2l2,0.5c0.6,0.1,1.1,0.2,1.5,0.3c0.1,0.2,0,0.3-0.1,0.4H84c-0.4,0-0.5,0.1-0.6,0.7L83.3,15.5z"/>
	<path class="st6" d="M87.4,16.3c-0.2,0.4-0.3,0.7-0.2,1.1c0.2,0.4,0.6,0.7,1.1,0.7c1,0.4,1.3,0.5,2.5-0.6c0.1,0,0.2,0,0.3,0
		c0.1,0,0.1,0.1,0.2,0.2c-0.3,0.6-0.7,1.1-1.2,1.6c-0.6-0.2-1.7-0.7-2.6-1l-1.5-0.6l-1.8-0.6c-0.1-0.2,0-0.3,0.1-0.4l0.6,0.1
		c0.5,0.1,0.6,0,1-1l1.6-4.2c0.4-1,0.4-1.1-0.1-1.4l-0.3-0.2c0-0.1,0-0.2,0-0.2c0-0.1,0.1-0.1,0.2-0.2l1.6,0.7
		c0.5,0.2,1.1,0.4,1.7,0.6c0.1,0.2,0,0.3-0.1,0.4h-0.3c-0.5-0.1-0.6,0-1,1L87.4,16.3z"/>
	<path class="st6" d="M95.6,18.4c0.2,0.1,0.3,0.1,0.4-0.2l0.2-1c0.1-0.5,0.2-1,0.2-1.3c-0.2,0.2-0.6,0.5-1.1,0.9l-0.7,0.6
		c-0.3,0.2-0.2,0.3,0,0.4L95.6,18.4z M94.2,18.4c-0.2-0.1-0.3-0.1-0.5,0l-1,1c-0.1,0.1-0.2,0.2-0.3,0.3c0,0,0,0.2,0.3,0.4l0.3,0.2
		c0,0.2-0.1,0.3-0.2,0.4c-0.4-0.2-0.8-0.4-1.2-0.7c-0.4-0.2-0.6-0.3-1.1-0.5c-0.1-0.2,0-0.3,0.2-0.4l0.3,0.1
		c0.4,0.2,0.7,0.1,0.9-0.2c0.4-0.3,0.9-0.7,1.6-1.3l2.3-2c0.4-0.3,0.8-0.7,1.1-1.1c0.4,0.1,0.9,0,1.3-0.1c0.1,0,0.1,0.1,0.1,0.1
		c0,0.1,0,0.1,0,0.2c-0.1,0.4-0.2,0.8-0.3,1.7l-0.8,4.9c-0.2,0.5-0.2,0.9,0.2,1.3l0.4,0.2c0,0.2-0.1,0.3-0.2,0.4
		c-0.5-0.3-1.1-0.6-1.6-0.9c-0.5-0.3-0.9-0.5-1.4-0.7c0-0.1,0-0.2,0-0.2c0-0.1,0.1-0.1,0.2-0.1l0.4,0.1c0.3,0.1,0.4,0,0.4,0
		c0.1-0.3,0.1-0.5,0.2-0.8l0.2-1.1c0-0.2,0-0.3-0.4-0.5L94.2,18.4z"/>
	<path class="st6" d="M104.8,19.6c-0.3-0.4-0.7-0.6-1.2-0.6c-0.5,0-0.9,0.1-1.3,0.4c-0.2,0-0.3-0.1-0.3-0.4c0.7-0.5,1.2-1,1.6-1.4
		c0.1,0,0.2,0.1,0.3,0.2c-0.1,0.2-0.1,0.3,0.6,0.8l2.7,2.1c0.7,0.5,1,0.7,1.1,0.8c0,0.1,0,0.1,0,0.2c-1,0.3-2,0.6-3,1l-2.3,0.8
		c-0.9,0.3-1.8,0.6-2.7,1c0,0.1,0,0.2,0.8,0.8l0.9,0.7c0.8,0.9,1.7,0.9,2.7,0.2c0.2,0,0.3,0.1,0.3,0.4c-0.5,0.5-1,1-1.6,1.3
		c-0.8-0.6-1.3-1-2-1.5l-2.4-1.9c-0.5-0.4-0.8-0.6-1-0.7c-0.1-0.1-0.1-0.1,0-0.2c0.3,0,1.2-0.4,1.8-0.6l4-1.4
		c0.4-0.1,1.4-0.5,1.8-0.7c0.1,0,0.2-0.1,0.3-0.2c0-0.1-0.1-0.2-0.3-0.3L104.8,19.6z"/>
	<path class="st6" d="M110.3,27.8c-0.2,0.2-0.2,0.3,0,0.5l0.5,0.6c0.4,0.4,0.6,0.5,1.1,0.2l0.3-0.2c0.2,0,0.3,0.1,0.3,0.3
		c-0.3,0.2-0.6,0.5-0.9,0.8c-0.3,0.3-0.6,0.6-0.9,0.9c-0.2,0-0.3-0.1-0.3-0.3l0.2-0.2c0.2-0.2,0.2-0.4,0.2-0.6
		c0-0.2-0.1-0.4-0.3-0.5l-0.6-0.6c-0.2-0.2-0.2-0.2-0.5,0l-1,1c-0.3,0.2-0.5,0.6-0.7,0.9c0,0.5,0.2,0.9,0.6,1.1
		c0.6,1,1.5,1.2,2.5,0.6c0.1,0,0.2,0,0.2,0.1c0.1,0.1,0.1,0.2,0,0.2c-0.5,0.4-1.1,0.7-1.7,1c-0.4-0.5-1.2-1.3-1.9-2l-1.1-1.1
		c-0.4-0.4-0.8-0.8-1.4-1.5c0.1-0.2,0.2-0.2,0.3-0.2l0.5,0.3c0.4,0.3,0.5,0.3,1.3-0.4l3.2-3.1c0.8-0.8,0.8-0.9,0.5-1.3l-0.2-0.3
		c0-0.1,0-0.2,0.1-0.2c0.1-0.1,0.2-0.1,0.3,0c0.4,0.4,0.8,0.8,1.2,1.3l1.7,1.8c0.5,0.5,1,1,1.1,1.1l-1.2,1.4c-0.1,0-0.2,0-0.2-0.1
		c-0.1-0.1-0.1-0.1-0.1-0.2c0.2-0.3,0.3-0.6,0.4-1c0-0.4-0.2-0.8-0.5-1.1l-0.7-0.7c-0.3-0.3-0.3-0.3-0.6,0L110.3,27.8z"/>
	<path class="st6" d="M115,33.8c-0.3,0.2-0.4,0.3,0.1,0.9c0.2,0.3,0.5,0.5,0.8,0.5c0.5,0.1,0.9-0.1,1.3-0.4c0.4-0.2,0.7-0.6,0.8-1
		c0.1-0.5,0-0.9-0.3-1.3c-0.3-0.4-0.3-0.4-0.8,0L115,33.8z M115.3,31.6c1-0.7,1.1-0.8,0.8-1.3l-0.1-0.2c0-0.1,0.1-0.1,0.1-0.2
		c0.1,0,0.1-0.1,0.2,0c0.6,0.7,1.2,1.4,1.8,2.3c0.5,0.6,0.9,1.4,1,2.2c0.1,0.8-0.2,1.4-0.8,1.9c-0.7,0.5-1.5,0.5-2.2,0
		c-0.1,0-0.2,0-0.2,0.1c-0.6,1-1.1,2.1-1.3,3.2c-0.1,0.3-0.1,0.6,0.1,0.9c0,0.1-0.1,0.2-0.2,0.2c-0.3-0.2-0.5-0.4-0.6-0.7
		c-0.7-0.8-0.8-1.7-0.3-2.6c0.3-0.6,0.6-1.2,1-1.8c0.2-0.3,0.2-0.5,0-0.8c-0.2-0.3-0.3-0.3-0.5-0.2l-1.2,0.9
		c-0.9,0.6-0.9,0.8-0.7,1.3l0.1,0.3c-0.1,0.2-0.2,0.2-0.3,0.2c-0.4-0.5-0.7-1-1-1.4c-0.3-0.5-0.7-0.9-1-1.4c0-0.2,0.2-0.3,0.3-0.2
		l0.2,0.2c0.4,0.4,0.5,0.4,1.4-0.3L115.3,31.6z"/>
	<path class="st6" d="M120.8,38.1c-1.1,0.6-2,0.4-2.7-0.6c0-0.1,0-0.2,0-0.2c0.1-0.1,0.1-0.1,0.2-0.1c0.4,0.4,0.9,0.5,1.5,0.3
		c0.4-0.2,0.5-0.5,0.3-0.9c-0.1-0.3,0-0.4,0.3-0.6c0.5-0.2,0.8-0.1,1.1,0.3c0.2,0.3,0.2,0.7,0.1,1C121.4,37.7,121.2,38,120.8,38.1z"
		/>
	<path class="st6" d="M116,44c-0.3-0.6-0.5-1.3-0.5-2c0.4-0.5,0.9-1,1.6-1.2c0.1,0,0.2,0.1,0.2,0.1c0,0.1,0.1,0.2,0,0.2
		c-0.8,0.7-1.1,1.6-0.7,2.7c0.1,0.3,0.4,0.5,0.7,0.7c0.3,0.1,0.7,0.1,1-0.1c0.8-0.6,1.1-1.3,1-2.3c-0.1-1.1,0.3-2,1.3-2.6
		c1.2-0.6,2.5-0.1,3.3,1.4c0.2,0.4,0.4,0.8,0.4,1.3c0,0.1,0.1,0.3,0.1,0.4c-0.4,0.4-0.9,0.7-1.4,1c-0.1,0-0.2,0-0.3-0.1
		c-0.1-0.1-0.1-0.2,0-0.3c0.7-0.6,0.9-1.2,0.6-2.1c-0.1-0.3-0.3-0.5-0.6-0.6c-0.3-0.1-0.6-0.1-0.9,0c-0.5,0.4-0.8,0.9-0.7,1.6V43
		c0.1,1.2-0.4,2-1.4,2.6C118.2,46.3,116.8,45.6,116,44z"/>
	<path class="st6" d="M34.6,111.2c-0.2-0.1-0.3-0.2-0.5-0.2c-0.5,0.1-1,0.3-1.4,0.5c-1.5,0.6-4.6,1.8-6.2,2.5
		c-0.1,0-0.3-0.1-0.4-0.2c-0.1-0.1-0.1-0.2-0.2-0.3c0.1-0.3,0.3-0.7,0.4-1.1l0.5-1.2c0.2-0.4,0.3-0.8,0.4-1l-0.9,0.3L25,111
		c-0.4,0.1-0.8,0.3-1.2,0.5c-0.1-0.1-0.2-0.1-0.3-0.2c-0.1-0.1-0.2-0.2-0.2-0.3c0.2-0.5,0.7-1.6,1-2.6l1.7-4.6
		c0.3-0.8,0.3-0.9,0-1.2l-0.2-0.3c0-0.2,0.1-0.3,0.3-0.3c0.3,0.3,0.7,0.7,1.1,1.2c0.4,0.4,0.7,0.7,1.1,1c0,0.2-0.1,0.3-0.3,0.3
		l-0.1-0.1c-0.2-0.1-0.3-0.1-0.4-0.1c-0.2,0.5-0.5,1-0.6,1.5l-1.1,2.8c-0.3,0.8-0.4,1.1-0.5,1.4c0.3-0.1,0.7-0.2,1.3-0.4l0.4-0.1
		c0.2-0.1,0.3-0.2,0.5-0.3c0.1-0.1,0.1-0.2,0.2-0.3l1-2.6c0.3-0.4,0.3-0.7,0-1.1l-0.1-0.1c0-0.1,0-0.2,0.1-0.2
		c0.1-0.1,0.1-0.1,0.2-0.1c0.4,0.4,0.7,0.7,1.1,1.1c0.4,0.4,0.8,0.8,1,1c0,0.2-0.1,0.3-0.3,0.3l-0.2-0.1c-0.1-0.1-0.3-0.1-0.4-0.1
		c-0.1,0.1-0.1,0.2-0.2,0.3l-0.3,0.9c-0.1,0.3-0.2,0.5-0.3,0.8l0.8-0.3l0.2-0.1c0.3-0.1,0.6-0.3,0.9-0.5c0,0,0-0.1,0-0.3l-0.2-0.3
		c0-0.2,0.1-0.3,0.3-0.3c0.2,0.3,0.5,0.6,0.8,0.9c0.3,0.3,0.7,0.7,0.9,0.9c0,0.2-0.1,0.3-0.3,0.3l-0.3-0.2c-0.4-0.3-0.9-0.3-1.3,0
		c-0.6,0.1-1.2,0.3-1.5,0.4c-0.2,0.1-0.4,0.2-0.7,0.3c-0.1,0.1-0.1,0.2-0.1,0.3l-0.5,1.3c-0.3,0.7-0.4,1.1-0.5,1.3
		c1.4-0.6,2.9-1.3,4.4-1.9c0.3-0.1,0.7-0.3,1-0.5c0,0,0-0.1,0-0.3l-0.2-0.4c0-0.2,0.1-0.3,0.3-0.3c0.3,0.3,0.6,0.7,0.9,0.9
		c0.3,0.3,0.6,0.5,0.8,0.8c0,0.2-0.1,0.3-0.3,0.3L34.6,111.2z"/>
	<path class="st6" d="M34.2,117.8c-0.7,0.9-0.7,1.1-0.3,1.5l0.2,0.2c0,0.2-0.1,0.3-0.3,0.3c-0.5-0.4-1-0.8-1.5-1.1
		c-0.5-0.3-1-0.7-1.6-1.1c0-0.2,0.1-0.3,0.2-0.4l0.3,0.1c0.5,0.2,0.6,0.2,1.3-0.7l2.6-3.7c0.7-0.9,0.7-1.1,0.3-1.5l-0.2-0.2
		c0-0.2,0.1-0.3,0.2-0.4c0.5,0.4,1,0.8,1.5,1.1c0.5,0.3,1,0.7,1.5,1.1c0,0.2-0.1,0.3-0.2,0.4l-0.3-0.2c-0.5-0.2-0.6-0.2-1.3,0.7
		L34.2,117.8z"/>
	<path class="st6" d="M43.4,122.8c-0.4,0.7-0.7,1.4-0.9,1.8c-0.3,0.1-0.5,0.1-0.8-0.1c0,0-0.1-0.8-0.2-1.7l-0.8-4.5
		c-0.1-0.7-0.2-1.4-0.4-2c-0.2,0.2-0.3,0.4-0.4,0.7l-1.1,2.1c-0.4,0.7-0.7,1.4-0.9,2.1c0,0.3,0.2,0.5,0.4,0.7l0.3,0.2
		c0,0.2-0.1,0.3-0.2,0.4l-1.4-0.8c-0.4-0.2-0.8-0.4-1.2-0.6c0-0.2,0.1-0.3,0.2-0.4l0.2,0.1c0.3,0.1,0.5,0.1,0.8,0
		c0.5-0.6,0.9-1.3,1.2-2l1.5-2.8c0.2-0.3,0.3-0.6,0.4-1c0-0.3-0.1-0.6-0.4-0.7l-0.3-0.2c0-0.2,0.1-0.3,0.2-0.4
		c0.5,0.3,1,0.6,1.5,0.8c0.4,0.2,0.7,0.4,0.9,0.5c0,1.2,0.1,2.3,0.5,3.4l0.4,1.6c0.2,0.8,0.3,1.4,0.4,1.8c0.1-0.1,0.2-0.3,0.3-0.5
		l0.8-1.5c0.4-0.7,0.7-1.4,0.9-2.1c0-0.3-0.2-0.5-0.4-0.7l-0.3-0.2c0-0.2,0.1-0.3,0.2-0.4c0.6,0.3,1,0.6,1.4,0.8
		c0.5,0.2,0.8,0.4,1.2,0.6c0,0.2-0.1,0.3-0.2,0.4l-0.2-0.1c-0.3-0.1-0.5-0.1-0.8,0c-0.5,0.6-0.9,1.2-1.2,1.9L43.4,122.8z"/>
	<path class="st6" d="M49.1,122c-0.1,0.3-0.1,0.4,0.2,0.5l0.8,0.3c0.6,0.2,0.8,0.2,1.1-0.3l0.2-0.3c0.2-0.1,0.3,0,0.4,0.2
		c-0.2,0.4-0.3,0.8-0.5,1.2c-0.2,0.4-0.3,0.9-0.4,1.3c-0.2,0.1-0.3,0-0.4-0.1v-0.3c0.1-0.2,0.1-0.4-0.1-0.6
		c-0.1-0.2-0.3-0.3-0.6-0.3l-0.8-0.3c-0.3-0.1-0.3-0.1-0.5,0.2l-0.5,1.4c-0.2,0.4-0.2,0.8-0.2,1.2c0.2,0.4,0.6,0.7,1.1,0.7
		c1,0.6,1.9,0.4,2.5-0.6c0.1,0,0.2,0,0.3,0c0.1,0,0.1,0.1,0.2,0.2c-0.3,0.6-0.7,1.1-1.1,1.6c-0.6-0.2-1.7-0.7-2.7-1l-1.5-0.5l-2-0.7
		c-0.1-0.2,0-0.3,0.2-0.4l0.6,0.1c0.5,0.1,0.7,0,1-1l1.5-4.3c0.4-1.1,0.3-1.2-0.2-1.4l-0.3-0.2c-0.1-0.2,0-0.3,0.2-0.4
		c0.5,0.2,1.1,0.4,1.7,0.6l2.5,0.9c0.7,0.3,1.4,0.5,1.6,0.5c0,0.2-0.3,1.1-0.5,1.9c-0.2,0.1-0.3,0.1-0.4-0.1c0-0.4,0-0.7-0.1-1.1
		c-0.2-0.4-0.6-0.7-1-0.8l-0.9-0.3c-0.4-0.1-0.4-0.1-0.5,0.3L49.1,122z"/>
	<path class="st6" d="M60.9,122.5c-0.2,0-0.4,0.1-0.6,0.2c-0.2,0.2-0.2,0.4-0.2,0.6c0,0.6,0.2,1.1,0.8,1.4c0.4-0.3,0.6-0.7,0.7-1.2
		c0.1-0.2,0-0.5-0.1-0.7C61.4,122.6,61.2,122.5,60.9,122.5L60.9,122.5z M60.3,129c0.6,0.1,1.2-0.1,1.6-0.6c0-0.1-0.1-0.3-0.2-0.4
		c-0.4-0.8-0.9-1.5-1.6-2c-0.1-0.1-0.2-0.2-0.3-0.2c-0.6,0.3-0.9,0.7-1,1.4c-0.1,0.5,0.1,0.9,0.3,1.2
		C59.5,128.7,59.8,128.9,60.3,129L60.3,129z M62.7,123.8c-0.2,0.7-0.6,1.1-1.3,1.3c0.7,0.5,1.2,1.2,1.6,1.9c0.3-0.4,0.6-0.8,0.9-1.2
		c0.2-0.3,0.3-0.5,0.4-0.8c0-0.1-0.1-0.2-0.1-0.2c-0.1-0.1-0.2-0.1-0.3,0h-0.2c-0.1-0.1-0.1-0.1,0-0.2c0-0.1,0.1-0.2,0.1-0.2h0.5
		c0.9,0.1,1.8,0.2,2.4,0.2c0.1,0.1,0.1,0.1,0.1,0.2c0,0.1,0,0.2-0.1,0.2h-0.3c-0.3,0-0.6,0.1-0.9,0.3c-0.4,0.3-0.8,0.7-1.1,1.1
		c-0.3,0.3-0.7,0.8-0.9,1c-0.1,0.1-0.2,0.2-0.2,0.3c0.1,0.1,0.1,0.2,0.2,0.4c0.2,0.8,0.8,1.3,1.7,1.5c0.4,0,0.8,0,1.1-0.2
		c0.1,0.1,0.2,0.2,0.1,0.3c-0.8,0.6-1.6,0.9-2.6,0.7c-0.6,0-1.1-0.2-1.5-0.7c-0.1-0.2-0.2-0.5-0.3-0.7c-0.7,0.7-1.6,1-2.6,0.9
		c-0.7,0-1.3-0.2-1.7-0.7c-0.5-0.5-0.7-1.1-0.6-1.8c0.2-1.2,1-1.9,2.2-2.2c-0.5-0.4-0.7-0.9-0.6-1.6c0.1-0.6,0.3-1,0.8-1.3
		c0.4-0.3,0.9-0.5,1.5-0.4c0.5,0,1,0.2,1.3,0.5C62.6,122.8,62.7,123.2,62.7,123.8z"/>
	<path class="st6" d="M73.9,130.3c-0.7,0.1-1.4,0-2.1-0.3c-0.4-0.6-0.6-1.3-0.6-2c0-0.1,0.1-0.1,0.2-0.2c0.1,0,0.2,0,0.3,0.1
		c0.4,1.1,1.1,1.7,2.3,1.7c0.4,0,0.6-0.1,0.9-0.4c0.2-0.3,0.3-0.6,0.3-0.9c-0.2-1-0.9-1.6-1.9-1.8c-1.2-0.3-1.9-1-2.1-2.2
		c-0.1-1.4,0.8-2.5,2.6-2.6c0.5-0.1,0.9-0.1,1.4,0h0.4c0.2,0.6,0.3,1.1,0.4,1.7c-0.1,0.1-0.1,0.1-0.2,0.1c-0.1,0-0.2,0-0.3-0.1
		c-0.3-0.9-0.9-1.3-1.8-1.4c-0.4,0-0.6,0.1-0.9,0.4c-0.2,0.3-0.3,0.6-0.3,0.9c0.2,0.7,0.6,1.1,1.3,1.3l0.8,0.4
		c1.1,0.3,1.8,1.1,2,2.3C76.9,129,75.8,130.1,73.9,130.3z"/>
	<path class="st6" d="M78.3,123.3c-0.3-1.2-0.3-1.3-0.8-1.3h-0.4c-0.1,0-0.1-0.1-0.1-0.2c0-0.1,0-0.2,0.1-0.2
		c0.8-0.2,1.7-0.5,2.8-0.7c0.8-0.2,1.5-0.2,2.3-0.1c1.1,0.1,1.7,0.7,1.9,1.8c0.1,0.7,0,1.3-0.5,1.9c-0.4,0.6-1,0.9-1.7,1l-0.4,0.1
		c-0.1-0.1-0.2-0.2-0.1-0.3c0.9-0.5,1.2-1.2,0.8-2.2c0-0.5-0.2-0.9-0.6-1.3c-0.4-0.3-0.9-0.4-1.4-0.3c-0.4,0.1-0.4,0.2-0.3,0.7
		l1.1,5.1c0.2,1.1,0.3,1.2,0.9,1.2h0.4c0.1,0,0.1,0.1,0.1,0.2c0,0.1,0,0.2-0.1,0.2l-1.9,0.4l-1.8,0.4c-0.1,0-0.2-0.1-0.2-0.2
		c0-0.1,0-0.2,0.1-0.3L79,129c0.5-0.2,0.6-0.3,0.3-1.4L78.3,123.3z"/>
	<path class="st6" d="M89.2,124.8c0.4,1.1,0.5,1.1,1.1,1.1h0.4c0.2,0.1,0.2,0.2,0.1,0.4l-1.8,0.6l-1.8,0.7c-0.2-0.1-0.2-0.2-0.1-0.4
		l0.3-0.2c0.5-0.3,0.5-0.4,0.2-1.5l-1.5-4.3c-0.4-1.1-0.5-1.1-1.1-1.1h-0.4c-0.2-0.1-0.2-0.2-0.1-0.4l1.8-0.6l1.7-0.7
		c0.2,0.1,0.2,0.2,0.1,0.4l-0.3,0.2c-0.5,0.3-0.5,0.4-0.2,1.5L89.2,124.8z"/>
	<path class="st6" d="M93.4,120c0.2,0.4,0.2,0.4,0.9,0.1c0.3-0.1,0.6-0.4,0.7-0.7c0.1-0.5,0.1-1-0.2-1.4c-0.2-0.5-0.5-0.8-0.9-1
		c-0.4-0.2-0.9-0.2-1.3,0c-0.5,0.2-0.4,0.3-0.2,0.8L93.4,120z M91.2,119.4c-0.6-1.1-0.6-1.2-1.1-1l-0.3,0.1c-0.1,0-0.1-0.1-0.2-0.2
		c0-0.1,0-0.2,0-0.2c0.8-0.5,1.6-1,2.7-1.5c0.7-0.4,1.5-0.7,2.4-0.7c0.8,0,1.4,0.4,1.8,1.1c0.4,0.8,0.3,1.6-0.3,2.2
		c-0.1,0.1,0,0.2,0.1,0.3c0.9,0.8,2,1.4,3.1,1.8c0.3,0.1,0.6,0.1,0.9,0c0.1,0,0.2,0.1,0.2,0.3c-0.2,0.2-0.5,0.4-0.8,0.5
		c-0.9,0.6-1.8,0.5-2.7-0.1c-0.6-0.4-1.2-0.8-1.7-1.3c-0.2-0.2-0.5-0.3-0.8-0.1c-0.4,0.2-0.4,0.2-0.3,0.4l0.7,1.3
		c0.5,1,0.6,1.1,1.2,0.9l0.3-0.1c0.2,0.1,0.2,0.2,0.2,0.4c-0.6,0.3-1.1,0.5-1.6,0.8c-0.5,0.3-1,0.5-1.6,0.8
		c-0.2-0.1-0.2-0.2-0.2-0.4l0.3-0.2c0.5-0.3,0.5-0.5,0-1.5L91.2,119.4z"/>
	<path class="st6" d="M102.9,117.6c0.7,1,0.8,1,1.3,0.8l0.3-0.1c0.2,0.1,0.3,0.2,0.2,0.4c-0.6,0.4-1.1,0.7-1.6,1
		c-0.5,0.3-1,0.7-1.5,1.1c-0.2-0.1-0.3-0.2-0.2-0.4l0.2-0.3c0.4-0.4,0.4-0.5-0.2-1.5l-2.6-3.8c-0.7-1-0.8-1-1.3-0.8l-0.3,0.1
		c-0.2-0.1-0.3-0.2-0.2-0.4c0.6-0.4,1.1-0.7,1.6-1c0.5-0.3,1-0.7,1.5-1.1c0.2,0.1,0.3,0.2,0.2,0.4l-0.2,0.2
		c-0.4,0.4-0.4,0.5,0.2,1.5L102.9,117.6z"/>
	<path class="st6" d="M103.9,110c-0.2-0.2-0.2-0.3-0.5-0.1l-0.6,0.5c-0.7,0.6-0.5,1.1-0.2,2.1c-0.1,0.2-0.2,0.3-0.4,0.2
		c-0.3-0.6-0.7-1.2-1.1-1.8c0-0.1,0-0.1,0.1-0.2c0,0,0.1-0.1,0.2-0.1c0.2,0.1,0.2,0.1,1-0.5l3.4-3.1c0.6-0.5,0.7-0.7,0.7-0.9
		c0-0.1,0-0.1,0.1-0.1c0.1,0,0.1,0,0.2,0c0.4,0.6,0.8,1.2,1.3,1.7c0,0.2-0.1,0.3-0.3,0.3c-0.2-0.3-0.5-0.5-0.9-0.5
		c-0.4,0-0.7,0.1-1,0.3l-0.6,0.4c-0.2,0.2-0.2,0.2,0,0.5l3.6,4.1c0.8,0.9,0.9,0.9,1.3,0.6l0.4-0.3c0.2,0.1,0.3,0.2,0.3,0.4
		c-0.6,0.5-1.1,0.9-1.5,1.3c-0.4,0.4-0.9,0.8-1.6,1.4c-0.2,0-0.3-0.1-0.3-0.3l0.4-0.4c0.4-0.4,0.4-0.5-0.4-1.4L103.9,110z"/>
	<path class="st6" d="M114.7,109.7c-0.5,0.6-1.1,1-1.7,1.3c-0.7-0.2-1.3-0.5-1.8-1c0-0.1,0-0.2,0-0.3c0.1-0.1,0.1-0.1,0.2-0.1
		c1,0.5,2,0.4,2.9-0.3c0.3-0.2,0.4-0.5,0.4-0.9c0-0.4-0.1-0.7-0.4-0.9c-0.9-0.5-1.7-0.5-2.6,0c-1.1,0.6-2.1,0.5-3-0.2
		c-1-0.9-1.1-2.4,0.1-3.7c0.3-0.4,0.7-0.7,1.1-0.9c0.1-0.1,0.2-0.2,0.4-0.2c0.5,0.3,1,0.6,1.5,1c0,0.1,0,0.2-0.1,0.3
		c-0.1,0.1-0.1,0.1-0.2,0.1c-0.8-0.4-1.5-0.4-2.2,0.2c-0.3,0.2-0.4,0.5-0.4,0.9c0,0.3,0.1,0.6,0.4,0.9c0.6,0.4,1.2,0.4,1.8,0.1
		l0.9-0.3c1.1-0.5,2.1-0.4,3,0.3C116,106.8,115.9,108.3,114.7,109.7z"/>
</g>
</svg>
